<?xml version="1.0" encoding="UTF-8"?>
<svg width="192px" height="192px" viewBox="0 0 192 192" version="1.1" xmlns="http://www.w3.org/2000/svg" xmlns:xlink="http://www.w3.org/1999/xlink">
    <!-- Generator: Sketch 41.2 (35397) - http://www.bohemiancoding.com/sketch -->
    <title>dlogger</title>
    <desc>Created with Sketch.</desc>
    <defs>
        <path d="M8.53420923,36.0754948 C3.10831573,40.8414273 -5.7572335e-10,47.8381619 0,56.8484363 C4.71318879e-10,64.2247399 0.104566248,83.0155521 0.284106387,109.750299 C0.303122365,112.581907 0.322840206,115.480869 0.343194146,118.439418 C0.418239578,129.347652 0.498644168,140.59676 0.579048657,151.553782 C0.607190192,155.388735 0.633321725,158.913268 0.656773308,162.048254 C0.664981558,163.145526 0.669839447,163.792316 0.678550623,164.948994 C0.684916828,165.792199 0.684916828,165.792199 0.686258112,165.96889 L0.761832469,164.886099 C0.72588767,165.128936 0.686822047,165.462903 0.652492435,165.879491 C0.344835454,169.612897 0.770133893,173.825294 2.57507546,178.019548 C6.21830897,186.485556 14.3485383,191.608411 26.5554379,191.608412 C37.889106,191.608413 37.889106,191.608413 56.0980818,191.608414 C67.5450315,191.608414 67.5450315,191.608414 79.6180679,191.608415 C101.261787,191.608416 101.261787,191.608416 119.298219,191.608417 C126.963702,191.608417 126.963702,191.608417 132.374632,191.608417 C136.432829,191.608417 136.432829,191.608417 137.334651,191.608417 C138.346206,191.619387 139.801384,191.527564 141.534617,191.249425 C144.29135,190.807042 147.050017,189.991577 149.689953,188.6829 C150.563834,188.249697 151.401961,187.773853 152.201886,187.255729 C152.362493,187.158079 152.520198,187.053377 152.674576,186.941597 C154.224962,185.884613 155.624287,184.662829 156.853647,183.279018 C157.182259,182.985404 157.518368,182.684623 157.861339,182.3772 C161.349564,179.25051 164.838752,176.073047 168.102147,173.031183 C168.596235,172.570636 169.082105,172.115997 169.55927,171.667664 C171.795724,169.56634 173.819317,167.624032 175.592681,165.870588 C176.199045,165.271035 180.506251,161.072066 181.642145,159.92829 C183.841251,157.713925 185.440967,155.942293 186.806053,154.136205 C190.259673,149.566866 191.989114,144.90932 191.989114,139.327281 C191.989114,126.439274 191.989114,126.439274 191.989114,104.330284 C191.989114,94.1142874 191.989114,94.1142874 191.989114,83.4990996 C191.989114,64.2523035 191.989114,64.2523035 191.989114,47.3849403 C191.989114,32.8970101 191.989114,32.8970101 191.989114,25.5473786 C191.989189,20.5500105 191.930646,18.6472286 191.580305,16.2335087 C191.038303,12.4993146 189.817767,9.41770939 187.520929,6.83582622 C183.013271,1.76875239 175.777725,6.76874885e-06 163.423912,5.5466895e-06 C154.89268,4.81604935e-06 154.89268,4.81604935e-06 142.411064,4.05629962e-06 C126.803041,3.20500785e-06 126.803041,3.20500785e-06 109.480323,2.39466682e-06 C73.1603855,8.28592967e-07 73.1603855,8.28592967e-07 52.6446991,0 C51.8083458,-3.64590864e-08 50.9745003,0.0709752369 50.1452291,0.209389508 C46.15617,0.875206308 42.587473,2.94844968 38.6695422,6.31852192 C37.274411,7.51856692 35.8539158,8.86500675 34.1273032,10.5943972 C33.2141476,11.5090219 30.1222217,14.670946 29.7881191,15.0092954 C28.9226148,15.8858011 28.1799483,16.624824 27.4684708,17.3145012 C22.6998069,21.937049 18.1465235,26.4196769 13.9624438,30.5903461 C12.4970585,32.0510346 11.1820005,33.3688949 10.036551,34.5223777 C9.63481339,34.9269328 9.28273009,35.2822911 8.98271297,35.5857576 C8.82512469,35.7457582 8.67564094,35.9091368 8.53420923,36.0754948 Z M162.823527,158.618324 C162.823529,148.533247 162.82353,131.682094 162.823529,109.742563 C162.823528,92.2713868 162.823528,92.2713868 162.823527,76.5883736 C162.823527,65.8460977 162.823527,65.8460977 162.823526,57.9666295 C162.823526,54.7116803 162.823526,54.7116803 162.823525,52.4684499 C162.823525,50.7804149 162.823525,50.7804149 162.823525,50.3014441 C162.823525,47.222525 161.223365,42.4024939 158.259023,38.5116947 C153.763703,32.6114345 146.69568,29.117048 137.334651,29.117048 L135.815482,29.117048 L132.165298,29.117048 L119.689609,29.117048 L82.5610054,29.117048 L46.2925805,29.117048 L35.5581389,29.117048 C36.1369578,28.5539083 36.7193341,27.9883266 37.3049701,27.420635 C38.0987879,26.6511405 38.911381,25.842534 39.8437518,24.8983119 C48.5724857,16.0586283 50.4507848,14.4429786 52.4740771,14.1052693 C73.160385,14.088895 73.160385,14.088895 109.480323,14.0888966 C126.80304,14.0888974 126.80304,14.0888974 142.411063,14.0888983 C154.892679,14.088899 154.892679,14.088899 163.423911,14.0888998 C168.263675,14.0889002 171.779414,14.4011577 174.178058,14.9875116 C175.838284,15.3933576 176.632303,15.8171982 176.963489,16.1894857 C177.206375,16.4625153 177.430807,17.0291597 177.608472,18.2532061 C177.823676,19.7358799 177.871531,21.2912713 177.871468,25.4343074 C177.871467,32.8970101 177.871467,32.8970101 177.871467,47.3849403 C177.871467,64.2523035 177.871467,64.2523035 177.871467,83.4990996 C177.871467,94.1142874 177.871467,94.1142874 177.871467,104.330284 C177.871467,126.439274 177.871467,126.439274 177.871467,139.327281 C177.871467,141.67695 177.226202,143.414707 175.535162,145.652051 C174.621117,146.861385 173.406076,148.207003 171.614872,150.010635 C170.575348,151.057372 166.334995,155.191169 165.65631,155.86223 C164.780461,156.728241 163.83412,157.648701 162.823527,158.618324 Z M27.9256067,43.2059423 L29.8601035,43.2059423 L33.7525715,43.2059423 L46.2925805,43.2059423 L82.5610054,43.2059423 L119.689609,43.2059423 L132.165298,43.2059423 L135.815482,43.2059423 L137.334651,43.2059423 C142.286786,43.2059423 145.196554,44.6445133 147.020892,47.0390189 C147.669845,47.890792 148.152493,48.8433865 148.468208,49.7943898 C148.581374,50.1352705 148.662214,50.444824 148.709999,50.689942 C148.722712,50.7551507 148.729566,50.797695 148.730644,50.8063938 C148.716983,50.6961077 148.705878,50.5521484 148.705878,50.3014441 C148.705878,50.7804162 148.705878,50.7804162 148.705878,52.4684511 C148.705879,54.7116815 148.705879,54.7116815 148.705879,57.9666307 C148.705879,65.8460988 148.705879,65.8460988 148.70588,76.5883745 C148.705881,92.2713876 148.705881,92.2713876 148.705882,109.742564 C148.705883,138.380206 148.705882,158.348248 148.705878,165.91552 C148.705875,171.496768 146.823957,174.372298 143.4094,176.064972 C142.150016,176.689277 140.732746,177.108224 139.293274,177.339222 C138.772275,177.422828 138.289069,177.475078 137.861945,177.50203 C137.624015,177.517044 137.473417,177.520651 137.427949,177.520178 C137.44737,177.520408 137.44737,177.520408 137.478949,177.520995 L137.334651,177.519523 C136.43283,177.519523 136.43283,177.519523 132.374633,177.519523 C126.963703,177.519523 126.963703,177.519523 119.298219,177.519522 C101.261787,177.519522 101.261787,177.519522 79.6180686,177.519521 C67.5450322,177.51952 67.5450322,177.51952 56.0980826,177.51952 C37.8891069,177.519519 37.8891069,177.519519 26.5554393,177.519518 C19.8877958,177.519517 16.9195204,175.649208 15.5470624,172.459942 C14.7930816,170.70787 14.587613,168.672793 14.7226401,167.034245 C14.7312951,166.929217 14.7352141,166.895713 14.7279257,166.944952 L14.807632,166.406471 L14.8035001,165.862161 C14.8021615,165.68582 14.8021615,165.68582 14.7957981,164.842996 C14.7870899,163.686712 14.7822331,163.040071 14.774027,161.943079 C14.7505802,158.808739 14.7244536,155.28487 14.6963172,151.450608 C14.6159274,140.49559 14.5355377,129.248568 14.4605085,118.34269 C14.4401597,115.384892 14.4204471,112.486698 14.4014364,109.655878 C14.2221714,82.9620965 14.1176471,64.1788205 14.1176471,56.8484363 C14.1176471,50.9585179 16.0235662,47.5874544 19.4327891,45.5013011 C21.9848785,43.9396403 25.315027,43.2059423 27.9256067,43.2059423 L27.9256067,43.2059423 L27.9256067,43.2059423 L27.9256067,43.2059423 L27.9256067,43.2059423 L27.9256067,43.2059423 L27.9256067,43.2059423 Z" id="path-1"></path>
    </defs>
    <g id="Logo" stroke="none" stroke-width="1" fill="none" fill-rule="evenodd">
        <g id="dlogger">
            <g id="logo">
                <path d="M41.0531662,4.49048481 C33.4726851,9.1290919 29,17.040081 29,27.8484363 C29,35.2247399 29.1045662,54.0155521 29.2841064,80.7502991 C29.3031224,83.5819074 29.3228402,86.4808691 29.3431941,89.4394175 C29.4182396,100.347652 29.4986442,111.59676 29.5790487,122.553782 C29.6071902,126.388735 29.6333217,129.913268 29.6567733,133.048254 C29.6649816,134.145526 29.6698394,134.792316 29.6785506,135.948994 C29.6849168,136.792199 29.6849168,136.792199 29.6862581,136.96889 L29.7618325,135.886099 C29.7258877,136.128936 29.686822,136.462903 29.6524924,136.879491 C29.3448355,140.612897 29.7701339,144.825294 31.5750755,149.019548 C35.218309,157.485556 43.3485383,162.608411 55.5554379,162.608412 C66.889106,162.608413 66.889106,162.608413 85.0980818,162.608414 C96.5450315,162.608414 96.5450315,162.608414 108.618068,162.608415 C130.261787,162.608416 130.261787,162.608416 148.298219,162.608417 C155.963702,162.608417 155.963702,162.608417 161.374632,162.608417 C165.432829,162.608417 165.432829,162.608417 166.334651,162.608417 C167.346206,162.619387 168.801384,162.527564 170.534617,162.249425 C173.29135,161.807042 176.050017,160.991577 178.689953,159.6829 C186.794171,155.665453 191.82352,147.98072 191.823525,136.915527 C191.823529,129.348251 191.82353,109.380209 191.823529,80.7425634 C191.823528,63.2713868 191.823528,63.2713868 191.823527,47.5883736 C191.823527,36.8460977 191.823527,36.8460977 191.823526,28.9666295 C191.823526,25.7116803 191.823526,25.7116803 191.823525,23.4684499 C191.823525,21.7804149 191.823525,21.7804149 191.823525,21.3014441 C191.823525,18.222525 190.223365,13.4024939 187.259023,9.51169473 C182.763703,3.61143448 175.69568,0.117048041 166.334651,0.117048041 L164.815482,0.117048041 L161.165298,0.117048041 L148.689609,0.117048041 L111.561005,0.117048041 L75.2925805,0.117048041 L62.7525715,0.117048041 L58.8601035,0.117048041 L56.9256067,0.117048041 C51.9198368,0.117048041 46.1076084,1.39759774 41.0531662,4.49048481 Z" id="background" fill="#745A49"></path>
                <path d="M12.0531662,33.4904848 C4.47268511,38.1290919 -6.90614102e-10,46.040081 0,56.8484363 C4.71318879e-10,64.2247399 0.104566248,83.0155521 0.284106387,109.750299 C0.303122365,112.581907 0.322840206,115.480869 0.343194146,118.439418 C0.418239578,129.347652 0.498644168,140.59676 0.579048657,151.553782 C0.607190192,155.388735 0.633321725,158.913268 0.656773308,162.048254 C0.664981558,163.145526 0.669839447,163.792316 0.678550623,164.948994 C0.684916828,165.792199 0.684916828,165.792199 0.686258112,165.96889 L0.761832469,164.886099 C0.72588767,165.128936 0.686822047,165.462903 0.652492435,165.879491 C0.344835454,169.612897 0.770133893,173.825294 2.57507546,178.019548 C6.21830897,186.485556 14.3485383,191.608411 26.5554379,191.608412 C37.889106,191.608413 37.889106,191.608413 56.0980818,191.608414 C67.5450315,191.608414 67.5450315,191.608414 79.6180679,191.608415 C101.261787,191.608416 101.261787,191.608416 119.298219,191.608417 C126.963702,191.608417 126.963702,191.608417 132.374632,191.608417 C136.432829,191.608417 136.432829,191.608417 137.334651,191.608417 C138.346206,191.619387 139.801384,191.527564 141.534617,191.249425 C144.29135,190.807042 147.050017,189.991577 149.689953,188.6829 C157.794171,184.665453 162.82352,176.98072 162.823525,165.915527 C162.823529,158.348251 162.82353,138.380209 162.823529,109.742563 C162.823528,92.2713868 162.823528,92.2713868 162.823527,76.5883736 C162.823527,65.8460977 162.823527,65.8460977 162.823526,57.9666295 C162.823526,54.7116803 162.823526,54.7116803 162.823525,52.4684499 C162.823525,50.7804149 162.823525,50.7804149 162.823525,50.3014441 C162.823525,47.222525 161.223365,42.4024939 158.259023,38.5116947 C153.763703,32.6114345 146.69568,29.117048 137.334651,29.117048 L135.815482,29.117048 L132.165298,29.117048 L119.689609,29.117048 L82.5610054,29.117048 L46.2925805,29.117048 L33.7525715,29.117048 L29.8601035,29.117048 L27.9256067,29.117048 C22.9198368,29.117048 17.1076084,30.3975977 12.0531662,33.4904848 Z" id="foreground" fill="#D1A170"></path>
                <path d="M49.842329,134.496346 L32.4737047,134.496346 C27.5328773,134.496346 23.5294118,138.500906 23.5294118,143.440419 C23.5294118,148.379933 27.5328773,152.384493 32.4737047,152.384493 L49.842329,152.384493 C54.7831565,152.384493 58.786622,148.379933 58.786622,143.440419 C58.786622,138.500906 54.7819639,134.496346 49.842329,134.496346 Z M123.967302,134.496346 L77.6501753,134.496346 C72.7093479,134.496346 68.7058824,138.500906 68.7058824,143.440419 C68.7058824,148.379933 72.7093479,152.384493 77.6501753,152.384493 L123.967302,152.384493 C128.908129,152.384493 132.911595,148.379933 132.911595,143.440419 C132.911595,138.500906 128.906937,134.496346 123.967302,134.496346 Z M125.247246,107.257817 L30.7119278,107.257817 C26.7443059,107.257817 23.5294118,111.262377 23.5294118,116.20189 C23.5294118,121.141404 26.7443059,125.145964 30.7119278,125.145964 L125.247246,125.145964 C129.214868,125.145964 132.429762,121.141404 132.429762,116.20189 C132.429762,111.262377 129.213911,107.257817 125.247246,107.257817 Z M124.19527,77.2015095 L106.826646,77.2015095 C101.885818,77.2015095 97.8823529,81.2060693 97.8823529,86.1455828 C97.8823529,91.0850964 101.885818,95.0896561 106.826646,95.0896561 L124.19527,95.0896561 C129.136098,95.0896561 133.139563,91.0850964 133.139563,86.1455828 C133.139563,81.2060693 129.134905,77.2015095 124.19527,77.2015095 Z M32.4737047,95.0896561 L73.0008924,95.0896561 C77.9417198,95.0896561 81.9451853,91.0850964 81.9451853,86.1455828 C81.9451853,81.2060693 77.9417198,77.2015095 73.0008924,77.2015095 L32.4737047,77.2015095 C27.5328773,77.2015095 23.5294118,81.2060693 23.5294118,86.1455828 C23.5294118,91.0850964 27.5340699,95.0896561 32.4737047,95.0896561 Z" id="innerlines" fill="#3D3028"></path>
                <mask id="mask-2" fill="white">
                    <use xlink:href="#path-1"></use>
                </mask>
                <use id="border" fill="#3D3028" xlink:href="#path-1"></use>
                <path d="M174.89474,8.55307239 L147.09534,35.3565956 C144.291646,38.0598513 144.214696,42.5194874 146.923469,45.3174716 C149.632241,48.1154558 154.100979,48.1922485 156.904673,45.4889928 L184.704074,18.6854695 C187.507768,15.9822138 187.584717,11.5225777 184.875945,8.72459354 C182.167172,5.92660933 177.698435,5.84981669 174.89474,8.55307239 L174.89474,8.55307239 Z" id="Line" fill="#3D3028"></path>
            </g>
        </g>
    </g>
</svg>